<?xml version="1.0" encoding="UTF-8" standalone="no"?>
<!DOCTYPE svg PUBLIC "-//W3C//DTD SVG 1.1//EN" "http://www.w3.org/Graphics/SVG/1.1/DTD/svg11.dtd">
<svg width="100%" height="100%" viewBox="0 0 4 4" version="1.1" xmlns="http://www.w3.org/2000/svg" xmlns:xlink="http://www.w3.org/1999/xlink" xml:space="preserve" xmlns:serif="http://www.serif.com/" style="fill-rule:evenodd;clip-rule:evenodd;stroke-linejoin:round;stroke-miterlimit:2;">
    <path d="M1.619,0c0.889,0 1.61,0.721 1.61,1.61c0,0.889 -0.721,1.61 -1.61,1.61c-0.888,0 -1.61,-0.721 -1.61,-1.61c0,-0.889 0.722,-1.61 1.61,-1.61Zm0,0.479c-0.624,0 -1.131,0.507 -1.131,1.131c0,0.624 0.507,1.131 1.131,1.131c0.624,-0 1.131,-0.507 1.131,-1.131c-0,-0.624 -0.507,-1.131 -1.131,-1.131Z" style="fill:#fff;"/>
    <path d="M3.025,2.455l0.544,0.545c0.148,0.148 0.148,0.387 0,0.535l-0.034,0.034c-0.148,0.148 -0.387,0.148 -0.535,0l-0.545,-0.544c-0.147,-0.148 -0.147,-0.388 0,-0.536l0.034,-0.034c0.148,-0.147 0.388,-0.147 0.536,0Z" style="fill:#fff;"/>
</svg>